<svg height="512" viewBox="0 0 58 58" width="512" xmlns="http://www.w3.org/2000/svg"><g id="Page-1" fill="none" fill-rule="evenodd"><g id="031---Compass" fill-rule="nonzero"><path id="Shape" d="m28.74 1.01c-15.2576082.13733466-27.59266534 12.4723918-27.73 27.73v.52c.13733466 15.2576082 12.4723918 27.5926653 27.73 27.73h.52c15.2576082-.1373347 27.5926653-12.4723918 27.73-27.73v-.52c-.1373347-15.2576082-12.4723918-27.59266534-27.73-27.73z" fill="#f3d55b"/><path id="Shape" d="m28.768 4c-13.6278503.12267817-24.64532183 11.1401497-24.768 24.768v.464c.12267817 13.6278503 11.1401497 24.6453218 24.768 24.768h.464c13.6278503-.1226782 24.6453218-11.1401497 24.768-24.768v-.464c-.1226782-13.6278503-11.1401497-24.64532183-24.768-24.768z" fill="#f0c419"/><path id="Shape" d="m52.96 27.69v2.62c-.1230224 2.3723306-.6051728 4.7122776-1.43 6.94-.11.31-.23.62-.36.93s-.26.62-.4.92c-1.0436425 2.2472277-2.4301881 4.3186121-4.11 6.14-.22.25-.45.49-.69.73s-.48.47-.73.69c-1.8213879 1.6798119-3.8927723 3.0663575-6.14 4.11-.3.14-.61.27-.92.4s-.62.25-.93.36c-2.2277224.8248272-4.5676694 1.3069776-6.94 1.43h-2.62c-2.3723306-.1230224-4.7122776-.6051728-6.94-1.43-.31-.11-.62-.23-.93-.36s-.62-.26-.92-.4c-2.2472277-1.0436425-4.3186121-2.4301881-6.14-4.11-.25-.22-.49-.45-.73-.69s-.47-.48-.69-.73c-1.67981194-1.8213879-3.06635752-3.8927723-4.11-6.14-.14-.3-.27-.61-.4-.92s-.25-.62-.36-.93c-.82482717-2.2277224-1.30697763-4.5676694-1.43-6.94v-2.62c.12302237-2.3723306.60517283-4.7122776 1.43-6.94.11-.31.23-.62.36-.93s.26-.62.4-.92c1.04364248-2.2472277 2.43018806-4.3186121 4.11-6.14.22-.25.45-.49.69-.73s.48-.47.73-.69c1.8213879-1.67981194 3.8927723-3.06635752 6.14-4.11.3-.14.61-.27.92-.4s.62-.25.93-.36c2.2277224-.82482717 4.5676694-1.30697763 6.94-1.43h2.62c2.3723306.12302237 4.7122776.60517283 6.94 1.43.31.11.62.23.93.36s.62.26.92.4c2.2472277 1.04364248 4.3186121 2.43018806 6.14 4.11.25.22.49.45.73.69s.47.48.69.73c1.6798119 1.8213879 3.0663575 3.8927723 4.11 6.14.14.3.27.61.4.92s.25.62.36.93c.8248272 2.2277224 1.3069776 4.5676694 1.43 6.94z" fill="#9fc9d3"/><circle id="Oval" cx="29" cy="29" fill="#84b5cb" r="19"/><path id="Shape" d="m20.17 23.74-4.17-7.74 7.74 4.17h10.52l7.74-4.17-4.17 7.74v10.52l4.17 7.74-7.74-4.17h-10.52l-7.74 4.17 4.17-7.74z" fill="#cc4b4c"/><g fill="#3f5c6c"><path id="Shape" d="m21.22 10.21c-.1193359.0540014-.249021.0813036-.38.08-.4073435.0020401-.7752126-.2432059-.93-.62l-1.01-2.44c.3-.14.61-.27.92-.4s.62-.25.93-.36l1.01 2.44c.1014448.24393606.1015012.51824117.0001566.76221888-.1013446.24397772-.2957346.43751282-.5401566.53778112z"/><path id="Shape" d="m13.71 13.71c-.3943361.3867403-1.0256639.3867403-1.42 0l-.95-.95c.22-.25.45-.49.69-.73s.48-.47.73-.69l.95.95c.3899779.3930079.3899779 1.0269921 0 1.42z"/><path id="Shape" d="m10.21 21.22c-.1551267.3720175-.51695639.6158592-.92.62-.13067726-.00158-.25977769-.028759-.38-.08l-2.44-1.01c.11-.31.23-.62.36-.93s.26-.62.4-.92l2.44 1.01c.24566648.101696.4407193.2970399.5420488.5428578.1013295.2458178.1005922.5218691-.0020488.7671422z"/><path id="Shape" d="m9.67 38.09-2.44 1.01c-.14-.3-.27-.61-.4-.92s-.25-.62-.36-.93l2.44-1.01c.51086339-.2098682 1.0951318.0341366 1.305.545s-.0341366 1.0951318-.545 1.305z"/><path id="Shape" d="m13.71 45.71-.95.95c-.25-.22-.49-.45-.73-.69s-.47-.48-.69-.73l.95-.95c.3921222-.3921221 1.0278778-.3921221 1.42 0 .3921221.3921222.3921221 1.0278778 0 1.42z"/><path id="Shape" d="m21.76 49.09-1.01 2.44c-.31-.11-.62-.23-.93-.36s-.62-.26-.92-.4l1.01-2.44c.2098682-.5108634.7941366-.7548682 1.305-.545s.7548682.7941366.545 1.305z"/><path id="Shape" d="m39.1 50.77c-.3.14-.61.27-.92.4s-.62.25-.93.36l-1.01-2.44c-.2098682-.5108634.0341366-1.0951318.545-1.305s1.0951318.0341366 1.305.545z"/><path id="Shape" d="m46.66 45.24c-.22.25-.45.49-.69.73s-.48.47-.73.69l-.95-.95c-.3921222-.3921222-.3921222-1.0278778 0-1.42s1.0278778-.3921222 1.42 0z"/><path id="Shape" d="m51.53 37.25c-.11.31-.23.62-.36.93s-.26.62-.4.92l-2.44-1.01c-.5108634-.2098682-.7548682-.7941366-.545-1.305s.7941366-.7548682 1.305-.545z"/><path id="Shape" d="m51.53 20.75-2.44 1.01c-.1202223.051241-.2493227.07842-.38.08-.4030436-.0041408-.7648733-.2479825-.92-.62-.102641-.2452731-.1033783-.5213244-.0020488-.7671422.1013295-.2458179.2963823-.4411618.5420488-.5428578l2.44-1.01c.14.3.27.61.4.92s.25.62.36.93z"/><path id="Shape" d="m46.66 12.76-.95.95c-.3943361.3867403-1.0256639.3867403-1.42 0-.3899779-.3930079-.3899779-1.0269921 0-1.42l.95-.95c.25.22.49.45.73.69s.47.48.69.73z"/><path id="Shape" d="m39.1 7.23-1.01 2.44c-.1547874.3767941-.5226565.6220401-.93.62-.130979.0013036-.2606641-.0259986-.38-.08-.244422-.1002683-.438812-.2938034-.5401566-.53778112-.1013446-.24397771-.1012882-.51828282.0001566-.76221888l1.01-2.44c.31.11.62.23.93.36s.62.26.92.4z"/></g><path id="Shape" d="m35 23-6 6v-29z" fill="#ecf0f1"/><path id="Shape" d="m58 29h-29l6-6z" fill="#35495e"/><path id="Shape" d="m58 29-23 6-6-6z" fill="#ecf0f1"/><path id="Shape" d="m35 35-6 23v-29z" fill="#35495e"/><path id="Shape" d="m29 29v29l-6-23z" fill="#ecf0f1"/><path id="Shape" d="m29 29-6 6-23-6z" fill="#35495e"/><path id="Shape" d="m29 29h-29l23-6z" fill="#ecf0f1"/><path id="Shape" d="m29 0v29l-6-6z" fill="#35495e"/></g></g></svg>